<?xml version="1.0" standalone="no"?>
<!DOCTYPE svg PUBLIC "-//W3C//DTD SVG 20010904//EN"
 "http://www.w3.org/TR/2001/REC-SVG-20010904/DTD/svg10.dtd">
<svg version="1.0" xmlns="http://www.w3.org/2000/svg"
 width="707.000000pt" height="707.000000pt" viewBox="0 0 707.000000 707.000000"
 preserveAspectRatio="xMidYMid meet">
<metadata>
Created by potrace 1.14, written by Peter Selinger 2001-2017
</metadata>
<g transform="translate(0.000000,707.000000) scale(0.100000,-0.100000)"
fill="#000000" stroke="none">
<path d="M3585 4302 c-52 -3 -223 -21 -255 -26 -14 -2 -70 -12 -125 -20 -195
-32 -306 -60 -475 -121 -41 -15 -92 -31 -113 -36 -20 -5 -88 -34 -150 -64
l-112 -55 -292 0 -293 0 -6 -25 c-7 -27 0 -40 19 -40 25 0 17 -92 -19 -217 -7
-25 -21 -22 -30 5 -4 12 -22 54 -40 92 -18 39 -35 81 -38 95 -3 14 -15 40 -26
58 -20 32 -20 32 -100 32 -77 0 -81 -1 -90 -26 -13 -33 -14 -31 14 -38 13 -3
26 -11 28 -18 3 -7 -8 -62 -23 -123 -16 -60 -31 -126 -35 -145 -10 -58 -27
-85 -56 -88 -24 -3 -37 -23 -38 -57 0 -6 38 -10 98 -10 76 0 98 3 104 15 12
26 9 50 -6 50 -8 0 -17 3 -20 8 -9 15 31 252 43 252 9 0 111 -206 111 -225 0
-11 30 -72 46 -94 2 -2 23 -4 47 -6 l44 -1 43 190 c24 105 47 201 51 214 17
46 109 53 109 8 0 -12 -9 -56 -20 -98 -11 -42 -24 -109 -30 -149 -12 -84 -21
-99 -61 -99 -22 0 -29 -5 -29 -19 0 -11 -2 -25 -5 -33 -4 -11 36 -13 225 -13
l231 0 35 55 c19 30 34 61 34 70 0 8 7 24 15 34 13 17 12 21 -3 32 -29 22 -49
16 -78 -24 -47 -65 -88 -86 -176 -90 -86 -4 -85 -5 -69 58 5 19 12 47 15 63 5
22 12 27 35 27 32 0 56 -22 47 -45 -6 -16 -6 -17 42 -21 31 -2 32 -1 32 35 0
20 8 67 19 104 l18 67 -33 0 c-23 0 -34 -5 -39 -19 -8 -27 -29 -42 -64 -46
-57 -7 -48 40 14 69 19 9 35 21 35 26 0 5 7 7 15 4 8 -4 17 1 21 9 11 31 79 6
113 -41 16 -23 26 -28 50 -24 36 5 37 11 12 85 -19 53 -19 57 -2 57 9 0 22 5
29 12 7 7 12 9 12 5 0 -3 21 3 48 14 90 40 271 99 334 109 35 5 90 17 122 25
33 9 75 18 94 21 19 3 44 8 56 10 23 4 66 12 107 18 158 25 497 25 629 1 14
-3 41 -7 60 -10 19 -3 81 -19 138 -35 56 -17 108 -30 116 -30 18 0 67 -24 162
-81 168 -100 250 -209 286 -379 15 -73 1 -200 -32 -271 -11 -24 -20 -51 -20
-60 0 -20 -117 -199 -130 -199 -5 0 -10 -6 -10 -13 0 -15 -38 -63 -44 -56 -4
4 27 133 39 162 4 9 17 17 30 17 21 0 34 21 35 55 0 11 -183 15 -194 5 -2 -3
-7 -18 -10 -33 -4 -21 -1 -27 14 -27 26 0 29 -18 13 -80 -8 -30 -17 -82 -21
-115 l-7 -60 -18 37 c-9 20 -44 92 -77 160 l-59 123 -81 0 c-47 0 -80 -4 -80
-10 0 -5 -3 -20 -6 -32 -5 -19 -2 -23 15 -23 19 0 21 -6 21 -49 0 -27 -4 -61
-10 -76 -5 -14 -12 -40 -15 -58 -12 -65 -38 -162 -48 -174 -5 -7 -22 -13 -37
-13 -20 0 -29 -6 -34 -22 -12 -48 -11 -48 99 -48 77 0 105 3 105 13 0 6 3 22
6 35 5 17 3 23 -7 22 -46 -7 -47 0 -18 120 39 164 31 154 67 83 18 -34 32 -67
32 -72 0 -6 21 -54 47 -106 l47 -96 45 3 45 3 27 115 c15 63 32 116 39 118 6
2 28 20 48 39 20 19 51 41 68 48 17 8 44 29 60 47 16 18 40 42 53 53 l24 20
-14 -24 c-8 -13 -18 -31 -24 -40 -5 -9 -32 -52 -58 -96 -26 -44 -63 -100 -82
-125 -18 -25 -34 -52 -34 -61 -1 -8 -15 -22 -33 -30 -20 -9 -35 -24 -39 -41
l-7 -28 109 0 c80 0 109 3 109 13 0 6 3 22 6 35 5 19 2 22 -20 22 -32 0 -32 2
-4 56 14 30 28 44 42 45 42 2 128 1 131 -3 7 -8 12 -77 6 -87 -4 -6 -19 -12
-34 -13 -19 -2 -29 -10 -37 -32 -5 -16 -10 -31 -10 -32 0 -2 54 -4 120 -4 120
0 121 0 130 26 14 37 13 42 -12 46 -21 3 -24 10 -30 73 -3 39 -9 84 -12 100
-3 17 -8 44 -10 60 -3 17 -7 39 -10 50 -2 11 -9 50 -16 86 l-12 67 -49 -4
c-48 -3 -48 -3 -36 19 6 12 29 44 49 70 58 76 95 164 105 248 9 88 9 88 -1
164 -11 81 -42 137 -122 222 -71 74 -116 104 -264 175 -86 41 -257 83 -444
109 -75 10 -330 17 -421 11z m-1398 -413 c-9 -6 -14 -15 -11 -21 4 -7 2 -8 -5
-4 -6 4 -19 2 -27 -5 -19 -15 -28 -6 -19 20 5 16 15 21 43 21 30 -1 34 -2 19
-11z m2499 -806 l6 -71 -51 0 c-28 -1 -51 3 -51 8 0 10 41 82 51 90 3 3 12 16
18 28 7 13 14 22 17 20 2 -3 7 -36 10 -75z"/>
<path d="M490 3954 c-11 -28 -7 -39 13 -39 19 -1 10 -118 -19 -240 -15 -60
-31 -116 -37 -122 -5 -7 -22 -13 -38 -13 -22 0 -29 -5 -30 -20 -1 -11 -2 -26
-3 -32 -1 -9 25 -13 92 -13 51 0 97 2 101 5 4 3 11 17 15 33 6 24 4 27 -19 27
-17 0 -25 5 -25 18 0 26 73 332 78 327 3 -2 7 -93 9 -202 3 -118 9 -201 15
-204 20 -13 43 -2 58 27 8 16 18 31 22 34 4 3 23 41 43 85 59 129 90 190 97
195 4 3 14 21 22 40 22 52 19 29 -15 -110 -17 -69 -32 -133 -34 -143 -9 -45
-18 -57 -43 -64 -31 -7 -42 -20 -42 -48 0 -20 6 -21 113 -20 117 0 125 3 126
48 1 10 -6 17 -18 17 -34 0 -35 13 -6 130 2 8 13 53 25 100 29 119 38 140 65
140 16 0 24 9 32 35 l11 35 -118 0 -119 0 -29 -42 c-16 -24 -33 -54 -37 -68
-4 -14 -27 -59 -51 -100 -50 -85 -44 -97 -47 100 l-2 105 -98 3 -97 3 -10 -27z"/>
<path d="M1125 3970 c-4 -6 -8 -21 -10 -33 -4 -19 0 -23 22 -25 15 -1 30 -6
33 -12 6 -10 -69 -326 -83 -348 -5 -6 -19 -12 -32 -12 -16 0 -25 -7 -29 -26
-4 -15 -4 -29 -1 -32 7 -8 223 -10 234 -2 4 3 11 17 15 33 6 24 4 27 -20 27
-26 0 -26 1 -21 58 5 64 60 289 74 303 5 5 21 10 36 11 23 2 27 7 27 35 l0 33
-119 0 c-71 0 -122 -4 -126 -10z"/>
<path d="M2507 3973 c-10 -18 -17 -63 -10 -62 5 1 16 1 26 0 19 -1 20 -18 3
-106 -3 -16 -7 -46 -10 -65 -6 -52 -37 -173 -49 -187 -5 -7 -22 -13 -37 -13
-21 0 -29 -6 -34 -25 -4 -14 -5 -29 -2 -33 5 -8 242 -10 249 -2 2 3 7 17 11
32 5 24 3 27 -21 30 -32 3 -36 24 -17 98 8 33 17 46 31 48 16 2 30 -14 65 -75
52 -91 72 -126 76 -133 4 -6 352 -7 353 0 0 3 3 17 5 33 4 23 1 27 -21 27 -32
0 -33 24 -1 70 23 35 24 35 100 35 45 0 76 -4 77 -10 0 -5 3 -23 5 -38 6 -35
-10 -57 -41 -57 -23 0 -35 -17 -35 -49 0 -15 13 -17 117 -16 106 0 117 2 124
20 12 31 10 45 -6 45 -19 0 -30 26 -44 110 -7 36 -13 75 -16 87 -5 32 -14 101
-20 159 -7 81 -10 84 -74 84 l-56 0 -75 -117 c-41 -64 -81 -130 -88 -147 -7
-17 -16 -33 -21 -36 -4 -3 -25 -32 -46 -65 -44 -70 -50 -75 -92 -75 -36 0 -68
33 -110 112 l-23 43 30 10 c77 26 135 101 127 162 -8 59 -36 86 -103 100 -64
13 -340 18 -347 6z m298 -85 c3 -2 8 -18 11 -36 9 -43 -30 -82 -83 -83 -37 -1
-76 1 -80 5 -1 1 3 29 10 63 9 50 15 63 32 65 23 4 103 -6 110 -14z m479 -125
c7 -57 9 -55 -54 -55 -16 0 -32 1 -35 1 -3 1 11 33 32 72 41 78 45 76 57 -18z"/>
<path d="M1504 3285 c-90 -27 -128 -53 -170 -118 -57 -86 -68 -146 -44 -239
25 -92 146 -168 245 -155 68 10 143 48 190 97 l30 32 -28 24 -28 24 -32 -34
c-83 -88 -188 -83 -232 11 -50 106 26 273 133 293 61 11 102 -20 122 -92 9
-31 14 -37 33 -34 12 3 30 5 40 5 15 1 17 7 13 39 -3 20 -6 55 -7 77 -3 54
-15 75 -40 70 -12 -2 -27 -9 -34 -15 -8 -7 -21 -6 -41 4 -41 20 -104 25 -150
11z"/>
<path d="M2078 3295 c-2 -2 -20 -6 -41 -9 -179 -28 -291 -235 -212 -392 14
-29 38 -57 57 -68 18 -11 44 -26 58 -35 16 -9 52 -14 100 -14 62 0 85 4 135
28 33 16 61 32 63 36 2 4 13 18 26 32 34 37 66 108 73 162 15 130 -79 242
-219 258 -20 3 -38 3 -40 2z m61 -88 c43 -22 63 -74 57 -146 -12 -145 -103
-243 -192 -206 -47 20 -58 47 -57 148 2 78 5 93 30 135 43 70 107 97 162 69z"/>
<path d="M5409 3289 c-126 -19 -182 -96 -147 -198 7 -20 22 -43 32 -51 32 -24
148 -70 179 -70 27 0 77 -38 77 -58 0 -22 -38 -54 -70 -61 -64 -14 -148 30
-194 102 -14 21 -26 27 -52 27 -19 0 -34 -3 -35 -7 -4 -38 -3 -177 2 -185 14
-23 61 1 75 40 1 1 23 -10 50 -25 42 -23 60 -28 124 -27 66 0 81 4 125 31 57
36 85 77 85 125 0 83 -87 146 -253 182 -18 4 -31 16 -38 34 -9 23 -7 30 16 49
14 13 39 23 55 23 35 0 110 -28 110 -41 0 -5 8 -18 18 -28 9 -11 22 -26 28
-33 7 -9 24 -13 48 -10 l37 4 -6 82 c-4 44 -12 84 -18 88 -16 10 -48 0 -62
-19 -12 -16 -15 -17 -32 -1 -25 22 -99 35 -154 27z"/>
<path d="M2433 3272 c-20 -21 -16 -52 7 -52 11 0 23 -6 26 -14 6 -16 -69 -333
-82 -346 -5 -5 -18 -10 -29 -12 -21 -3 -33 -21 -34 -50 -1 -16 10 -18 98 -18
l99 0 4 35 c3 26 1 34 -9 31 -24 -9 -31 25 -16 78 7 28 17 78 22 111 10 65 16
94 30 140 10 33 9 48 16 -215 2 -69 4 -138 4 -153 1 -25 4 -28 32 -25 23 2 34
11 48 38 49 96 148 295 175 350 9 19 14 26 12 15 -3 -11 -9 -45 -15 -75 -48
-257 -49 -259 -94 -262 -22 -2 -29 -9 -35 -33 l-8 -30 119 -3 c66 -1 121 -1
123 0 2 2 5 18 9 36 5 29 3 32 -21 32 -25 0 -26 3 -21 33 12 62 18 91 22 98 3
4 7 23 11 44 3 20 12 58 20 83 7 26 14 59 14 73 0 27 16 39 50 39 18 0 37 46
25 59 -4 3 -56 6 -116 6 l-110 1 -34 -52 c-19 -29 -35 -55 -35 -59 0 -4 -15
-30 -34 -58 -18 -29 -36 -64 -40 -79 -13 -57 -21 -25 -21 85 1 171 6 162 -105
162 -65 0 -97 -4 -107 -13z"/>
<path d="M3080 3280 c-4 -3 -12 -18 -15 -33 -6 -23 -4 -27 13 -27 12 0 23 -4
26 -9 5 -8 -6 -118 -17 -166 -39 -170 -50 -195 -81 -195 -25 0 -46 -24 -46
-54 0 -14 18 -16 124 -16 l124 0 11 31 c6 18 11 34 11 35 0 2 -14 4 -31 4
l-32 0 7 47 c3 26 10 61 16 78 5 16 16 62 25 100 33 146 33 145 65 145 17 0
30 5 30 13 0 6 3 21 6 32 5 19 0 20 -111 20 -64 0 -120 -2 -125 -5z"/>
<path d="M3349 3262 c-14 -36 -11 -42 16 -42 22 0 25 -4 25 -38 0 -37 -52
-266 -70 -309 -5 -13 -20 -23 -37 -25 -22 -2 -29 -9 -34 -35 l-6 -33 122 0
123 0 11 31 c14 40 14 38 -7 34 -40 -7 -47 9 -33 77 15 72 12 67 39 73 16 3
28 -11 62 -78 24 -45 46 -84 50 -87 4 -3 12 -15 19 -27 10 -21 19 -23 81 -23
39 0 70 3 71 8 0 4 3 19 5 34 4 23 1 27 -23 30 -29 3 -82 68 -83 101 0 9 -4
17 -9 17 -5 0 -11 7 -15 15 -4 10 8 21 37 34 132 61 153 193 39 244 -41 18
-68 21 -211 22 -162 1 -163 1 -172 -23z m311 -80 c41 -50 -6 -99 -99 -105 -73
-5 -72 -7 -35 122 7 23 113 9 134 -17z"/>
<path d="M5769 3262 c-14 -36 -11 -42 16 -42 33 0 40 -20 26 -73 -7 -23 -14
-53 -17 -67 -17 -80 -54 -214 -62 -222 -5 -5 -19 -10 -31 -11 -11 -1 -21 -1
-21 -2 0 0 -4 -15 -9 -33 l-10 -32 124 0 123 0 11 31 c15 42 15 41 -16 37 -23
-2 -28 1 -31 22 -1 14 3 47 10 74 17 65 46 70 83 15 14 -21 25 -43 25 -49 0
-13 30 -73 40 -80 4 -3 12 -15 19 -27 10 -21 19 -23 81 -23 49 0 70 4 70 13 0
6 3 22 6 34 5 18 1 22 -22 25 -23 2 -34 14 -57 57 -16 30 -35 60 -43 68 -19
20 -19 20 29 41 41 18 106 81 108 105 0 7 2 21 4 31 7 38 -22 84 -67 107 -38
20 -59 22 -211 23 l-169 2 -9 -24z m307 -73 c23 -19 17 -71 -11 -91 -28 -21
-145 -32 -145 -14 1 13 19 95 25 115 6 17 108 9 131 -10z"/>
<path d="M6340 3275 c0 -5 -3 -20 -6 -32 -5 -20 -2 -23 20 -23 20 0 26 -5 26
-21 0 -32 -71 -322 -83 -336 -5 -7 -20 -13 -34 -13 -13 0 -22 -4 -18 -9 3 -5
1 -12 -5 -16 -5 -3 -10 -15 -10 -26 0 -18 9 -19 209 -19 l209 0 20 33 c20 35
65 148 60 153 -2 1 -15 5 -29 9 -22 5 -29 0 -52 -33 -38 -55 -92 -82 -161 -82
-31 0 -56 4 -56 9 0 9 67 293 76 324 3 10 18 20 34 23 26 6 39 26 40 59 0 7
-45 10 -120 10 -73 0 -120 -4 -120 -10z"/>
</g>
</svg>
